<?xml version="1.0" encoding="UTF-8"?>
<svg id="Layer_2" xmlns="http://www.w3.org/2000/svg" viewBox="0 0 592 82.22">
  <defs>
    <style>
      .cls-1 {
        fill: #ff5c00;
      }

      .cls-2 {
        fill: #151926;
      }
    </style>
  </defs>
  <path class="cls-1" d="M0,26.33v51.09c0,2.65,2.14,4.8,4.78,4.8h72.28c2.64,0,4.78-2.15,4.78-4.8v-9.28c0-.95-.96-1.59-1.83-1.22-6.95,2.92-14.58,4.53-22.58,4.53C29.76,71.44,6.56,52.19.38,26.29c-.05-.22-.38-.18-.38.04Z"/>
  <path class="cls-1" d="M80.03,1.27c-1.04-1.04-2.83-1.24-3.73-1.27H5.39c-.9.03-2.69.23-3.73,1.27C.46,2.48.07,3.51.26,5.36c2.6,20.21,19.78,35.81,40.6,35.81s37.36-15.04,40.44-34.7h0c.46-2.59.18-3.78-1.25-5.21Z"/>
  <path class="cls-2" d="M109.31,61.37c-3.13-.96-5.61-2.23-7.43-3.81l2.8-6.31c1.78,1.42,3.97,2.57,6.56,3.47,2.59.9,5.19,1.34,7.81,1.34,3.23,0,5.65-.52,7.25-1.56,1.6-1.04,2.39-2.42,2.39-4.13,0-1.25-.45-2.28-1.34-3.09-.89-.81-2.02-1.45-3.39-1.91-1.37-.46-3.23-.98-5.6-1.56-3.32-.79-6-1.58-8.05-2.38-2.05-.79-3.82-2.03-5.29-3.72s-2.21-3.97-2.21-6.84c0-2.42.65-4.61,1.96-6.59,1.31-1.98,3.28-3.55,5.91-4.72,2.63-1.17,5.86-1.75,9.67-1.75,2.65,0,5.26.33,7.84,1,2.57.67,4.79,1.63,6.66,2.88l-2.55,6.31c-1.91-1.12-3.9-1.98-5.97-2.56-2.07-.58-4.09-.88-6.03-.88-3.19,0-5.57.54-7.12,1.63-1.55,1.08-2.33,2.52-2.33,4.31,0,1.25.44,2.27,1.34,3.06.89.79,2.02,1.42,3.39,1.88,1.37.46,3.23.98,5.6,1.56,3.23.75,5.89,1.53,7.96,2.34,2.07.81,3.85,2.05,5.32,3.72,1.47,1.67,2.21,3.92,2.21,6.75,0,2.42-.65,4.6-1.96,6.56-1.31,1.96-3.29,3.52-5.94,4.69-2.65,1.17-5.89,1.75-9.7,1.75-3.36,0-6.6-.48-9.73-1.44h0Z"/>
  <polygon class="cls-2" points="199.34 28.8 187.09 62.18 179.62 62.18 171.04 39.17 162.33 62.18 154.87 62.18 142.68 28.8 150.02 28.8 158.79 53.43 167.93 28.8 174.46 28.8 183.42 53.55 192.44 28.8 199.34 28.8 199.34 28.8"/>
  <path class="cls-2" d="M216.8,21.01c0,2.5-2.01,4.52-4.5,4.52s-4.5-2.02-4.5-4.52,2.01-4.52,4.5-4.52,4.5,2.02,4.5,4.52ZM208.4,28.8h7.77v33.38h-7.77V28.8Z"/>
  <path class="cls-2" d="M256.86,32.11c2.53,2.46,3.79,6.11,3.79,10.94v19.13h-7.77v-18.13c0-2.92-.68-5.12-2.05-6.59-1.37-1.48-3.32-2.22-5.85-2.22-2.86,0-5.12.87-6.78,2.6-1.66,1.73-2.49,4.22-2.49,7.47v16.88h-7.77V28.8h7.4v4.31c1.29-1.54,2.9-2.71,4.85-3.5,1.95-.79,4.15-1.19,6.59-1.19,4.19,0,7.55,1.23,10.08,3.69h0Z"/>
  <path class="cls-2" d="M295.21,51.39c1.89-1.77,2.83-4.07,2.83-6.91s-.94-5.06-2.83-6.81c-1.89-1.75-4.3-2.62-7.25-2.62s-5.42.88-7.31,2.62c-1.89,1.75-2.83,4.02-2.83,6.81s.94,5.14,2.83,6.91c1.89,1.77,4.32,2.66,7.31,2.66s5.36-.89,7.25-2.66ZM305.69,28.8v28.32c0,11.75-5.97,17.63-17.91,17.63-3.19,0-6.22-.41-9.08-1.22-2.86-.81-5.23-1.99-7.09-3.53l3.48-5.87c1.45,1.21,3.28,2.18,5.5,2.91,2.22.73,4.47,1.09,6.75,1.09,3.65,0,6.32-.83,8.02-2.5,1.7-1.67,2.55-4.21,2.55-7.63v-1.75c-1.33,1.46-2.95,2.56-4.85,3.31-1.91.75-4,1.12-6.28,1.12-3.15,0-6-.68-8.55-2.03-2.55-1.35-4.56-3.26-6.03-5.72s-2.21-5.27-2.21-8.44.74-5.97,2.21-8.41,3.48-4.32,6.03-5.66c2.55-1.33,5.4-2,8.55-2,2.4,0,4.59.4,6.56,1.19,1.97.79,3.62,2,4.94,3.62v-4.44h7.4Z"/>
  <path class="cls-2" d="M327.9,59.93c-3.55-1.94-6.32-4.61-8.34-8.03-2.01-3.42-3.02-7.27-3.02-11.56s1.02-8.15,3.05-11.56c2.03-3.42,4.82-6.09,8.36-8.03,3.55-1.94,7.52-2.91,11.91-2.91,3.57,0,6.82.63,9.76,1.88,2.94,1.25,5.43,3.06,7.46,5.44l-5.23,4.94c-3.15-3.42-7.03-5.13-11.63-5.13-2.98,0-5.66.66-8.02,1.97-2.36,1.31-4.21,3.14-5.54,5.47-1.33,2.33-1.99,4.98-1.99,7.94s.66,5.6,1.99,7.94c1.33,2.33,3.17,4.16,5.54,5.47,2.36,1.31,5.04,1.97,8.02,1.97,4.6,0,8.48-1.73,11.63-5.19l5.23,5c-2.03,2.38-4.53,4.19-7.49,5.44-2.96,1.25-6.23,1.88-9.8,1.88-4.4,0-8.37-.97-11.91-2.91h0Z"/>
  <path class="cls-2" d="M383.75,55.62c1.51-.9,2.58-2.18,3.2-3.85v-3.88h-8.02c-4.48,0-6.72,1.48-6.72,4.44,0,1.42.56,2.54,1.68,3.37,1.12.83,2.67,1.25,4.66,1.25s3.68-.45,5.19-1.34h0ZM390.84,31.99c2.59,2.35,3.89,5.91,3.89,10.66v19.56h-7.34v-4.06c-.95,1.46-2.31,2.57-4.07,3.34-1.76.77-3.89,1.16-6.38,1.16s-4.66-.43-6.53-1.28c-1.87-.85-3.31-2.04-4.32-3.56-1.02-1.52-1.52-3.24-1.52-5.16,0-3,1.11-5.41,3.33-7.22,2.22-1.81,5.71-2.72,10.48-2.72h8.58v-.5c0-2.33-.69-4.13-2.08-5.38-1.39-1.25-3.45-1.88-6.19-1.88-1.87,0-3.7.29-5.5.88-1.81.58-3.33,1.4-4.57,2.44l-3.05-5.69c1.74-1.33,3.83-2.35,6.28-3.06,2.45-.71,5.04-1.06,7.77-1.06,4.89,0,8.64,1.18,11.23,3.53h0Z"/>
  <path class="cls-2" d="M426.57,60.4c-.91.75-2.02,1.31-3.33,1.69-1.31.37-2.69.56-4.14.56-3.65,0-6.47-.96-8.46-2.88-1.99-1.92-2.98-4.71-2.98-8.38v-16.06h-5.47v-6.25h5.47v-7.63h7.77v7.63h8.89v6.25h-8.89v15.88c0,1.63.39,2.87,1.18,3.72.79.85,1.93,1.28,3.42,1.28,1.74,0,3.19-.46,4.35-1.37l2.18,5.56h0Z"/>
  <path class="cls-2" d="M453.15,55.62c1.51-.9,2.58-2.18,3.2-3.85v-3.88h-8.02c-4.48,0-6.72,1.48-6.72,4.44,0,1.42.56,2.54,1.68,3.37,1.12.83,2.67,1.25,4.66,1.25s3.68-.45,5.19-1.34h0ZM460.24,31.99c2.59,2.35,3.89,5.91,3.89,10.66v19.56h-7.34v-4.06c-.95,1.46-2.31,2.57-4.07,3.34-1.76.77-3.89,1.16-6.38,1.16s-4.66-.43-6.53-1.28c-1.87-.85-3.31-2.04-4.32-3.56-1.02-1.52-1.52-3.24-1.52-5.16,0-3,1.11-5.41,3.33-7.22,2.22-1.81,5.71-2.72,10.48-2.72h8.58v-.5c0-2.33-.69-4.13-2.08-5.38-1.39-1.25-3.45-1.88-6.19-1.88-1.87,0-3.7.29-5.5.88-1.81.58-3.33,1.4-4.57,2.44l-3.05-5.69c1.74-1.33,3.83-2.35,6.28-3.06,2.45-.71,5.04-1.06,7.77-1.06,4.89,0,8.64,1.18,11.23,3.53h0Z"/>
  <rect class="cls-2" x="475.64" y="17.73" width="7.77" height="44.48"/>
  <path class="cls-2" d="M529.37,28.84l-15.55,36.07c-1.45,3.62-3.21,6.18-5.29,7.66-2.07,1.48-4.58,2.22-7.53,2.22-1.66,0-3.3-.27-4.91-.81-1.62-.54-2.94-1.29-3.98-2.25l3.11-5.75c.75.71,1.63,1.27,2.64,1.69,1.02.42,2.04.63,3.08.63,1.37,0,2.5-.35,3.39-1.06.89-.71,1.71-1.9,2.46-3.56l.56-1.31-14.49-33.5h8.08l10.45,24.69,10.51-24.69h7.46Z"/>
  <path class="cls-2" d="M539.26,61.59c-2.57-.71-4.62-1.61-6.16-2.69l2.98-5.94c1.49,1,3.29,1.8,5.38,2.41,2.09.6,4.16.91,6.19.91,4.64,0,6.97-1.23,6.97-3.69,0-1.17-.59-1.98-1.77-2.44-1.18-.46-3.08-.9-5.69-1.31-2.74-.42-4.97-.9-6.69-1.44-1.72-.54-3.21-1.49-4.48-2.85-1.27-1.35-1.9-3.24-1.9-5.66,0-3.17,1.32-5.7,3.95-7.59,2.63-1.9,6.19-2.84,10.67-2.84,2.28,0,4.56.26,6.84.78s4.15,1.22,5.6,2.09l-2.98,5.94c-2.82-1.67-5.99-2.5-9.52-2.5-2.28,0-4.01.34-5.19,1.03-1.18.69-1.77,1.6-1.77,2.72,0,1.25.63,2.14,1.9,2.66s3.22,1.01,5.88,1.47c2.65.42,4.83.9,6.53,1.44,1.7.54,3.16,1.46,4.39,2.75,1.22,1.29,1.83,3.13,1.83,5.5,0,3.13-1.35,5.63-4.04,7.5-2.7,1.88-6.37,2.81-11.01,2.81-2.7,0-5.33-.35-7.9-1.06Z"/>
  <path class="cls-2" d="M592,60.4c-.91.75-2.02,1.31-3.33,1.69-1.31.37-2.69.56-4.14.56-3.65,0-6.47-.96-8.46-2.88-1.99-1.92-2.98-4.71-2.98-8.38v-16.06h-5.47v-6.25h5.47v-7.63h7.77v7.63h8.89v6.25h-8.89v15.88c0,1.63.39,2.87,1.18,3.72.79.85,1.93,1.28,3.42,1.28,1.74,0,3.19-.46,4.35-1.37l2.18,5.56h0Z"/>
</svg>